<?xml version="1.0" encoding="utf-8"?>
<!-- Generator: Adobe Illustrator 23.1.0, SVG Export Plug-In . SVG Version: 6.00 Build 0)  -->
<svg version="1.1" id="Layer_1" xmlns="http://www.w3.org/2000/svg" xmlns:xlink="http://www.w3.org/1999/xlink" x="0px" y="0px"
	 viewBox="0 0 167 51" style="enable-background:new 0 0 167 51;" xml:space="preserve">
<style type="text/css">
	.st0{fill:#260F1D;}
	.st1{fill:none;stroke:#000000;stroke-width:0.25;stroke-miterlimit:10;}
	.st2{fill:url(#SVGID_1_);}
	.st3{fill:url(#SVGID_2_);}
	.st4{fill:url(#SVGID_3_);}
	.st5{fill:url(#SVGID_4_);}
	.st6{fill:url(#SVGID_5_);}
	.st7{fill:url(#SVGID_6_);}
	.st8{fill:#231F20;}
</style>
<path class="st0" d="M17.23,20.13v4.86h10.14v5.28H17.23v4.86h11.28v5.29H11.66V14.85h16.85v5.29H17.23z M54.69,36.27
	c-2.62,3.14-6.04,4.71-10.25,4.71c-1.9,0-3.68-0.35-5.32-1.04c-1.64-0.69-3.07-1.64-4.27-2.84c-1.2-1.2-2.15-2.61-2.84-4.23
	c-0.69-1.62-1.04-3.37-1.04-5.25s0.34-3.63,1.04-5.25c0.69-1.62,1.64-3.03,2.84-4.23c1.2-1.2,2.63-2.15,4.27-2.84
	c1.64-0.69,3.42-1.04,5.32-1.04c2.09,0,3.91,0.36,5.45,1.07c1.54,0.71,2.93,1.75,4.2,3.11l-3.89,3.79c-0.67-0.76-1.46-1.4-2.39-1.91
	c-0.93-0.51-2.04-0.77-3.32-0.77c-1.12,0-2.16,0.19-3.13,0.57c-0.96,0.38-1.8,0.93-2.52,1.64c-0.71,0.71-1.27,1.57-1.68,2.55
	c-0.4,0.99-0.61,2.09-0.61,3.3c0,1.21,0.2,2.32,0.61,3.3c0.4,0.99,0.96,1.84,1.68,2.55c0.71,0.71,1.55,1.26,2.52,1.64
	c0.96,0.38,2.01,0.57,3.13,0.57c1.36,0,2.54-0.27,3.54-0.82c1-0.55,1.9-1.33,2.71-2.36L54.69,36.27z M70.4,40.99
	c-1.93,0-3.71-0.35-5.36-1.04c-1.64-0.69-3.07-1.64-4.27-2.84c-1.2-1.2-2.14-2.61-2.82-4.23c-0.68-1.62-1.02-3.37-1.02-5.25
	s0.34-3.63,1.02-5.25c0.68-1.62,1.62-3.03,2.82-4.23c1.2-1.2,2.62-2.15,4.27-2.84c1.64-0.69,3.43-1.04,5.36-1.04
	c1.93,0,3.71,0.35,5.36,1.04c1.64,0.69,3.06,1.64,4.27,2.84c1.2,1.2,2.14,2.61,2.82,4.23c0.68,1.62,1.02,3.37,1.02,5.25
	s-0.34,3.63-1.02,5.25c-0.68,1.62-1.62,3.03-2.82,4.23s-2.62,2.15-4.27,2.84C74.12,40.64,72.33,40.99,70.4,40.99z M70.4,35.7
	c1.09,0,2.13-0.19,3.09-0.57c0.96-0.38,1.8-0.93,2.52-1.64c0.71-0.71,1.27-1.56,1.68-2.55c0.41-0.99,0.61-2.09,0.61-3.3
	c0-1.21-0.2-2.32-0.61-3.3c-0.4-0.99-0.96-1.84-1.68-2.55s-1.55-1.26-2.52-1.64s-1.99-0.57-3.09-0.57c-1.12,0-2.15,0.19-3.11,0.57
	s-1.79,0.93-2.5,1.64c-0.71,0.71-1.27,1.57-1.68,2.55c-0.41,0.99-0.61,2.09-0.61,3.3c0,1.21,0.2,2.32,0.61,3.3
	c0.4,0.99,0.96,1.84,1.68,2.55c0.71,0.71,1.55,1.26,2.5,1.64C68.25,35.51,69.29,35.7,70.4,35.7z M87.76,14.85h5.57v20.28h10.71v5.29
	H87.76V14.85z M119.15,40.99c-1.93,0-3.71-0.35-5.36-1.04c-1.64-0.69-3.07-1.64-4.27-2.84c-1.2-1.2-2.14-2.61-2.82-4.23
	c-0.68-1.62-1.02-3.37-1.02-5.25s0.34-3.63,1.02-5.25c0.68-1.62,1.62-3.03,2.82-4.23c1.2-1.2,2.62-2.15,4.27-2.84
	c1.64-0.69,3.43-1.04,5.36-1.04c1.93,0,3.71,0.35,5.36,1.04c1.64,0.69,3.06,1.64,4.27,2.84c1.2,1.2,2.14,2.61,2.82,4.23
	c0.68,1.62,1.02,3.37,1.02,5.25s-0.34,3.63-1.02,5.25c-0.68,1.62-1.62,3.03-2.82,4.23c-1.2,1.2-2.62,2.15-4.27,2.84
	C122.86,40.64,121.07,40.99,119.15,40.99z M119.15,35.7c1.09,0,2.13-0.19,3.09-0.57c0.96-0.38,1.8-0.93,2.52-1.64
	c0.71-0.71,1.27-1.56,1.68-2.55c0.41-0.99,0.61-2.09,0.61-3.3c0-1.21-0.2-2.32-0.61-3.3c-0.4-0.99-0.96-1.84-1.68-2.55
	s-1.55-1.26-2.52-1.64s-1.99-0.57-3.09-0.57c-1.12,0-2.15,0.19-3.11,0.57s-1.79,0.93-2.5,1.64c-0.71,0.71-1.27,1.57-1.68,2.55
	c-0.41,0.99-0.61,2.09-0.61,3.3c0,1.21,0.2,2.32,0.61,3.3c0.4,0.99,0.96,1.84,1.68,2.55c0.71,0.71,1.55,1.26,2.5,1.64
	C116.99,35.51,118.03,35.7,119.15,35.7z M136.5,14.85h9.64c1.38,0,2.62,0.21,3.71,0.63c1.09,0.42,2.02,0.99,2.77,1.73
	c0.75,0.74,1.32,1.61,1.71,2.63s0.59,2.11,0.59,3.3c0,0.83-0.14,1.61-0.41,2.32c-0.27,0.71-0.64,1.38-1.11,1.98
	c-0.46,0.61-1.01,1.14-1.62,1.61c-0.62,0.46-1.29,0.85-2,1.16v0.32l6.68,9.53v0.36h-6.36l-6.46-9.21h-1.57v9.21h-5.57V14.85z
	 M146.14,26.06c1,0,1.79-0.29,2.36-0.88s0.86-1.3,0.86-2.16c0-0.86-0.27-1.58-0.8-2.16c-0.54-0.58-1.34-0.87-2.41-0.87h-4.07v6.07
	H146.14z"/>
<g>
	<path class="st1" d="M16.23,19.42v4.86h10.14v5.28H16.23v4.86h11.28v5.29H10.66V14.14h16.85v5.29H16.23z M53.69,35.56
		c-2.62,3.14-6.04,4.71-10.25,4.71c-1.9,0-3.68-0.35-5.32-1.04c-1.64-0.69-3.07-1.64-4.27-2.84c-1.2-1.2-2.15-2.61-2.84-4.23
		c-0.69-1.62-1.04-3.37-1.04-5.25s0.34-3.63,1.04-5.25c0.69-1.62,1.64-3.03,2.84-4.23c1.2-1.2,2.63-2.15,4.27-2.84
		s3.42-1.04,5.32-1.04c2.09,0,3.91,0.36,5.45,1.07s2.93,1.75,4.2,3.11l-3.89,3.79c-0.67-0.76-1.46-1.4-2.39-1.91
		c-0.93-0.51-2.04-0.77-3.32-0.77c-1.12,0-2.16,0.19-3.13,0.57c-0.96,0.38-1.8,0.93-2.52,1.64c-0.71,0.71-1.27,1.57-1.68,2.55
		c-0.4,0.99-0.61,2.09-0.61,3.3c0,1.21,0.2,2.32,0.61,3.3c0.4,0.99,0.96,1.84,1.68,2.55c0.71,0.71,1.55,1.26,2.52,1.64
		c0.96,0.38,2.01,0.57,3.13,0.57c1.36,0,2.54-0.27,3.54-0.82c1-0.55,1.9-1.33,2.71-2.36L53.69,35.56z M69.4,40.28
		c-1.93,0-3.71-0.35-5.36-1.04c-1.64-0.69-3.07-1.64-4.27-2.84c-1.2-1.2-2.14-2.61-2.82-4.23c-0.68-1.62-1.02-3.37-1.02-5.25
		s0.34-3.63,1.02-5.25c0.68-1.62,1.62-3.03,2.82-4.23c1.2-1.2,2.62-2.15,4.27-2.84c1.64-0.69,3.43-1.04,5.36-1.04
		c1.93,0,3.71,0.35,5.36,1.04s3.06,1.64,4.27,2.84c1.2,1.2,2.14,2.61,2.82,4.23c0.68,1.62,1.02,3.37,1.02,5.25s-0.34,3.63-1.02,5.25
		c-0.68,1.62-1.62,3.03-2.82,4.23s-2.62,2.15-4.27,2.84C73.12,39.93,71.33,40.28,69.4,40.28z M69.4,34.99
		c1.09,0,2.13-0.19,3.09-0.57c0.96-0.38,1.8-0.93,2.52-1.64c0.71-0.71,1.27-1.56,1.68-2.55c0.41-0.99,0.61-2.09,0.61-3.3
		c0-1.21-0.2-2.32-0.61-3.3c-0.4-0.99-0.96-1.84-1.68-2.55s-1.55-1.26-2.52-1.64s-1.99-0.57-3.09-0.57c-1.12,0-2.15,0.19-3.11,0.57
		s-1.79,0.93-2.5,1.64c-0.71,0.71-1.27,1.57-1.68,2.55c-0.41,0.99-0.61,2.09-0.61,3.3c0,1.21,0.2,2.32,0.61,3.3
		c0.4,0.99,0.96,1.84,1.68,2.55c0.71,0.71,1.55,1.26,2.5,1.64C67.25,34.8,68.29,34.99,69.4,34.99z M86.76,14.14h5.57v20.28h10.71
		v5.29H86.76V14.14z M118.15,40.28c-1.93,0-3.71-0.35-5.36-1.04c-1.64-0.69-3.07-1.64-4.27-2.84c-1.2-1.2-2.14-2.61-2.82-4.23
		c-0.68-1.62-1.02-3.37-1.02-5.25s0.34-3.63,1.02-5.25c0.68-1.62,1.62-3.03,2.82-4.23c1.2-1.2,2.62-2.15,4.27-2.84
		s3.43-1.04,5.36-1.04c1.93,0,3.71,0.35,5.36,1.04s3.06,1.64,4.27,2.84c1.2,1.2,2.14,2.61,2.82,4.23c0.68,1.62,1.02,3.37,1.02,5.25
		s-0.34,3.63-1.02,5.25c-0.68,1.62-1.62,3.03-2.82,4.23c-1.2,1.2-2.62,2.15-4.27,2.84C121.86,39.93,120.07,40.28,118.15,40.28z
		 M118.15,34.99c1.09,0,2.13-0.19,3.09-0.57c0.96-0.38,1.8-0.93,2.52-1.64c0.71-0.71,1.27-1.56,1.68-2.55
		c0.41-0.99,0.61-2.09,0.61-3.3c0-1.21-0.2-2.32-0.61-3.3c-0.4-0.99-0.96-1.84-1.68-2.55s-1.55-1.26-2.52-1.64s-1.99-0.57-3.09-0.57
		c-1.12,0-2.15,0.19-3.11,0.57s-1.79,0.93-2.5,1.64c-0.71,0.71-1.27,1.57-1.68,2.55c-0.41,0.99-0.61,2.09-0.61,3.3
		c0,1.21,0.2,2.32,0.61,3.3c0.4,0.99,0.96,1.84,1.68,2.55c0.71,0.71,1.55,1.26,2.5,1.64C115.99,34.8,117.03,34.99,118.15,34.99z
		 M135.5,14.14h9.64c1.38,0,2.62,0.21,3.71,0.63c1.09,0.42,2.02,0.99,2.77,1.73c0.75,0.74,1.32,1.61,1.71,2.63s0.59,2.11,0.59,3.3
		c0,0.83-0.14,1.61-0.41,2.32c-0.27,0.71-0.64,1.38-1.11,1.98c-0.46,0.61-1.01,1.14-1.62,1.61c-0.62,0.46-1.29,0.85-2,1.16v0.32
		l6.68,9.53v0.36h-6.36l-6.46-9.21h-1.57v9.21h-5.57V14.14z M145.14,25.35c1,0,1.79-0.29,2.36-0.88s0.86-1.3,0.86-2.16
		c0-0.86-0.27-1.58-0.8-2.16c-0.54-0.58-1.34-0.87-2.41-0.87h-4.07v6.07H145.14z"/>
</g>
<linearGradient id="SVGID_1_" gradientUnits="userSpaceOnUse" x1="19.0914" y1="14.1389" x2="19.0914" y2="39.7063">
	<stop  offset="0.5" style="stop-color:#959595"/>
	<stop  offset="0.5026" style="stop-color:#8C8C8C"/>
	<stop  offset="0.5092" style="stop-color:#7B7B7B"/>
	<stop  offset="0.5175" style="stop-color:#707070"/>
	<stop  offset="0.5291" style="stop-color:#696969"/>
	<stop  offset="0.5614" style="stop-color:#676767"/>
</linearGradient>
<polygon class="st2" points="16.23,19.42 16.23,24.28 26.38,24.28 26.38,29.56 16.23,29.56 16.23,34.42 27.52,34.42 27.52,39.71 
	10.66,39.71 10.66,14.14 27.52,14.14 27.52,19.42 "/>
<linearGradient id="SVGID_2_" gradientUnits="userSpaceOnUse" x1="41.8377" y1="13.5677" x2="41.8377" y2="40.2776">
	<stop  offset="0.5" style="stop-color:#93A461"/>
	<stop  offset="0.5022" style="stop-color:#889858"/>
	<stop  offset="0.5074" style="stop-color:#738247"/>
	<stop  offset="0.5136" style="stop-color:#63713B"/>
	<stop  offset="0.5212" style="stop-color:#586632"/>
	<stop  offset="0.5318" style="stop-color:#525F2C"/>
	<stop  offset="0.5614" style="stop-color:#505D2B"/>
</linearGradient>
<path class="st3" d="M53.69,35.56c-2.62,3.14-6.04,4.71-10.25,4.71c-1.9,0-3.68-0.35-5.32-1.04c-1.64-0.69-3.07-1.64-4.27-2.84
	c-1.2-1.2-2.15-2.61-2.84-4.23c-0.69-1.62-1.04-3.37-1.04-5.25s0.34-3.63,1.04-5.25c0.69-1.62,1.64-3.03,2.84-4.23
	c1.2-1.2,2.63-2.15,4.27-2.84s3.42-1.04,5.32-1.04c2.09,0,3.91,0.36,5.45,1.07s2.93,1.75,4.2,3.11l-3.89,3.79
	c-0.67-0.76-1.46-1.4-2.39-1.91c-0.93-0.51-2.04-0.77-3.32-0.77c-1.12,0-2.16,0.19-3.13,0.57c-0.96,0.38-1.8,0.93-2.52,1.64
	c-0.71,0.71-1.27,1.57-1.68,2.55c-0.4,0.99-0.61,2.09-0.61,3.3c0,1.21,0.2,2.32,0.61,3.3c0.4,0.99,0.96,1.84,1.68,2.55
	c0.71,0.71,1.55,1.26,2.52,1.64c0.96,0.38,2.01,0.57,3.13,0.57c1.36,0,2.54-0.27,3.54-0.82c1-0.55,1.9-1.33,2.71-2.36L53.69,35.56z"
	/>
<linearGradient id="SVGID_3_" gradientUnits="userSpaceOnUse" x1="69.4049" y1="13.5676" x2="69.4049" y2="40.2775">
	<stop  offset="0.5" style="stop-color:#BD7B63"/>
	<stop  offset="0.501" style="stop-color:#B8765E"/>
	<stop  offset="0.5063" style="stop-color:#A36148"/>
	<stop  offset="0.5126" style="stop-color:#925037"/>
	<stop  offset="0.5203" style="stop-color:#87452C"/>
	<stop  offset="0.5312" style="stop-color:#803E25"/>
	<stop  offset="0.5614" style="stop-color:#7E3C23"/>
</linearGradient>
<path class="st4" d="M81.85,21.67c-0.68-1.62-1.62-3.03-2.82-4.23c-1.2-1.2-2.62-2.15-4.27-2.84s-3.43-1.04-5.36-1.04
	c-1.93,0-3.71,0.35-5.36,1.04s-3.07,1.64-4.27,2.84c-1.2,1.2-2.14,2.61-2.82,4.23c-0.68,1.62-1.02,3.37-1.02,5.25
	s0.34,3.63,1.02,5.25s1.62,3.03,2.82,4.23c1.2,1.2,2.62,2.15,4.27,2.84c1.64,0.69,3.43,1.04,5.36,1.04c1.93,0,3.71-0.35,5.36-1.04
	c1.64-0.69,3.06-1.64,4.27-2.84s2.14-2.61,2.82-4.23s1.02-3.37,1.02-5.25S82.53,23.29,81.85,21.67z M76.69,30.23
	c-0.4,0.99-0.96,1.84-1.68,2.55c-0.71,0.71-1.55,1.26-2.52,1.64c-0.96,0.38-1.99,0.57-3.09,0.57c-1.12,0-2.15-0.19-3.11-0.57
	c-0.95-0.38-1.79-0.93-2.5-1.64c-0.71-0.71-1.27-1.56-1.68-2.55c-0.41-0.99-0.61-2.09-0.61-3.3c0-1.21,0.2-2.32,0.61-3.3
	c0.4-0.99,0.96-1.84,1.68-2.55c0.71-0.71,1.55-1.26,2.5-1.64s1.99-0.57,3.11-0.57c1.09,0,2.13,0.19,3.09,0.57s1.8,0.93,2.52,1.64
	s1.27,1.57,1.68,2.55c0.41,0.99,0.61,2.09,0.61,3.3C77.3,28.14,77.09,29.24,76.69,30.23z"/>
<linearGradient id="SVGID_4_" gradientUnits="userSpaceOnUse" x1="94.901" y1="14.1389" x2="94.901" y2="39.7063">
	<stop  offset="0.5" style="stop-color:#C25E83"/>
	<stop  offset="0.5021" style="stop-color:#B85379"/>
	<stop  offset="0.5073" style="stop-color:#A33D64"/>
	<stop  offset="0.5134" style="stop-color:#932C54"/>
	<stop  offset="0.5211" style="stop-color:#882149"/>
	<stop  offset="0.5317" style="stop-color:#821A43"/>
	<stop  offset="0.5614" style="stop-color:#801841"/>
</linearGradient>
<polygon class="st5" points="86.76,14.14 92.33,14.14 92.33,34.42 103.04,34.42 103.04,39.71 86.76,39.71 "/>
<linearGradient id="SVGID_5_" gradientUnits="userSpaceOnUse" x1="118.1461" y1="13.5676" x2="118.1461" y2="40.2775">
	<stop  offset="0.5" style="stop-color:#A56A97"/>
	<stop  offset="0.501" style="stop-color:#A16592"/>
	<stop  offset="0.5063" style="stop-color:#8D4F7D"/>
	<stop  offset="0.5126" style="stop-color:#7E3E6C"/>
	<stop  offset="0.5203" style="stop-color:#733361"/>
	<stop  offset="0.5312" style="stop-color:#6D2C5A"/>
	<stop  offset="0.5614" style="stop-color:#6B2A58"/>
</linearGradient>
<path class="st6" d="M130.59,21.67c-0.68-1.62-1.62-3.03-2.82-4.23c-1.2-1.2-2.62-2.15-4.27-2.84s-3.43-1.04-5.36-1.04
	c-1.93,0-3.71,0.35-5.36,1.04s-3.07,1.64-4.27,2.84c-1.2,1.2-2.14,2.61-2.82,4.23c-0.68,1.62-1.02,3.37-1.02,5.25
	s0.34,3.63,1.02,5.25s1.62,3.03,2.82,4.23c1.2,1.2,2.62,2.15,4.27,2.84c1.64,0.69,3.43,1.04,5.36,1.04c1.93,0,3.71-0.35,5.36-1.04
	c1.64-0.69,3.06-1.64,4.27-2.84c1.2-1.2,2.14-2.61,2.82-4.23s1.02-3.37,1.02-5.25S131.27,23.29,130.59,21.67z M125.43,30.23
	c-0.4,0.99-0.96,1.84-1.68,2.55c-0.71,0.71-1.55,1.26-2.52,1.64c-0.96,0.38-1.99,0.57-3.09,0.57c-1.12,0-2.15-0.19-3.11-0.57
	c-0.95-0.38-1.79-0.93-2.5-1.64c-0.71-0.71-1.27-1.56-1.68-2.55c-0.41-0.99-0.61-2.09-0.61-3.3c0-1.21,0.2-2.32,0.61-3.3
	c0.4-0.99,0.96-1.84,1.68-2.55c0.71-0.71,1.55-1.26,2.5-1.64s1.99-0.57,3.11-0.57c1.09,0,2.13,0.19,3.09,0.57s1.8,0.93,2.52,1.64
	s1.27,1.57,1.68,2.55c0.41,0.99,0.61,2.09,0.61,3.3C126.04,28.14,125.84,29.24,125.43,30.23z"/>
<linearGradient id="SVGID_6_" gradientUnits="userSpaceOnUse" x1="145.4811" y1="14.1389" x2="145.4811" y2="39.7062">
	<stop  offset="0.5" style="stop-color:#6594A7"/>
	<stop  offset="0.5014" style="stop-color:#5F8DA0"/>
	<stop  offset="0.5066" style="stop-color:#4B778A"/>
	<stop  offset="0.5129" style="stop-color:#3B6679"/>
	<stop  offset="0.5206" style="stop-color:#305B6E"/>
	<stop  offset="0.5314" style="stop-color:#2A5467"/>
	<stop  offset="0.5614" style="stop-color:#285265"/>
</linearGradient>
<path class="st7" d="M148.78,29.81v-0.32c0.71-0.31,1.38-0.7,2-1.16c0.62-0.46,1.16-1,1.62-1.61c0.46-0.61,0.83-1.27,1.11-1.98
	c0.27-0.71,0.41-1.49,0.41-2.32c0-1.19-0.2-2.29-0.59-3.3s-0.96-1.89-1.71-2.63c-0.75-0.74-1.67-1.31-2.77-1.73
	c-1.09-0.42-2.33-0.63-3.71-0.63h-9.64v25.57h5.57v-9.21h1.57l6.46,9.21h6.36v-0.36L148.78,29.81z M147.5,24.48
	c-0.57,0.58-1.36,0.88-2.36,0.88h-4.07v-6.07h4.07c1.07,0,1.88,0.29,2.41,0.87c0.54,0.58,0.8,1.3,0.8,2.16
	C148.36,23.17,148.07,23.89,147.5,24.48z"/>
<g>
	<path class="st8" d="M155.93,11.01c0.42,0,0.84,0.11,1.24,0.33c0.4,0.22,0.72,0.53,0.95,0.94c0.23,0.41,0.34,0.83,0.34,1.27
		c0,0.44-0.11,0.85-0.33,1.26c-0.22,0.4-0.53,0.71-0.94,0.94c-0.4,0.22-0.82,0.33-1.26,0.33c-0.44,0-0.86-0.11-1.26-0.33
		c-0.4-0.22-0.71-0.53-0.94-0.94c-0.22-0.4-0.34-0.82-0.34-1.26c0-0.44,0.11-0.86,0.34-1.27c0.23-0.41,0.54-0.72,0.95-0.94
		C155.09,11.12,155.51,11.01,155.93,11.01z M155.93,11.43c-0.36,0-0.7,0.09-1.04,0.27c-0.34,0.18-0.6,0.44-0.79,0.78
		c-0.19,0.34-0.28,0.69-0.28,1.06c0,0.36,0.09,0.71,0.28,1.05c0.19,0.33,0.45,0.59,0.78,0.78c0.34,0.19,0.68,0.28,1.05,0.28
		c0.36,0,0.71-0.09,1.05-0.28c0.34-0.19,0.6-0.45,0.78-0.78c0.19-0.33,0.28-0.68,0.28-1.05c0-0.37-0.09-0.72-0.28-1.06
		c-0.19-0.34-0.45-0.6-0.79-0.78C156.63,11.52,156.29,11.43,155.93,11.43z M156.74,13.95l0.41,0.12c-0.07,0.28-0.21,0.5-0.43,0.67
		c-0.22,0.17-0.48,0.25-0.79,0.25c-0.39,0-0.71-0.13-0.96-0.38c-0.25-0.25-0.37-0.61-0.37-1.06c0-0.3,0.06-0.55,0.17-0.77
		c0.11-0.22,0.27-0.38,0.48-0.49c0.21-0.11,0.44-0.17,0.71-0.17c0.3,0,0.54,0.07,0.74,0.21c0.2,0.14,0.33,0.33,0.4,0.58l-0.4,0.1
		c-0.07-0.17-0.17-0.29-0.3-0.38c-0.13-0.09-0.28-0.13-0.46-0.13c-0.26,0-0.47,0.09-0.64,0.27c-0.17,0.18-0.25,0.45-0.25,0.79
		s0.08,0.6,0.24,0.78c0.16,0.18,0.36,0.26,0.61,0.26c0.2,0,0.38-0.06,0.53-0.17C156.59,14.31,156.7,14.15,156.74,13.95z"/>
</g>
</svg>
